<svg width="992" height="412" viewBox="0 0 992 412" fill="none" xmlns="http://www.w3.org/2000/svg">
<path d="M35 65.9032C35 43.8653 52.9086 26 75 26L358 26C380.091 26 398 43.8653 398 65.9032L398 348.218C398 370.256 380.091 388.121 358 388.121L75 388.121C52.9086 388.121 35 370.256 35 348.218L35 65.9032Z" fill="#0C1118"/>
<g clip-path="url(#clip0_201_303)">
<path d="M295 206.726C295 268.984 265.899 319.453 230 319.453C194.101 319.453 165 268.984 165 206.726C165 144.469 194.102 94 230 94C265.899 94 295 144.469 295 206.726Z" fill="white"/>
<path d="M118.001 207.225C118.001 175.85 133.563 148.111 157.383 131.317C161.116 128.686 166.001 131.497 166.001 136.057L166.001 278.406C166.001 282.966 161.116 285.765 157.383 283.134C133.563 266.339 118.001 238.601 118.001 207.225Z" fill="white"/>
<path d="M91.001 207.225C91.001 195.096 96.3152 184.181 104.791 176.584C108.172 173.554 113.001 176.314 113.001 180.848L113.001 233.615C113.001 238.149 108.172 240.897 104.791 237.867C96.3152 230.27 91.001 219.354 91.001 207.225Z" fill="white"/>
<path d="M77.001 207.225C77.001 203.468 78.0094 199.953 79.7624 196.954C82.0817 192.986 87.001 195.478 87.001 200.072L87.001 214.384C87.001 218.978 82.0817 221.465 79.7624 217.497C78.0094 214.497 77.001 210.983 77.001 207.225Z" fill="white"/>
<path d="M344 207.225C344 165.546 322.832 128.824 290.69 107.284C286.894 104.74 282 107.56 282 112.122L282 302.375C282 306.937 286.894 309.711 290.69 307.167C322.832 285.627 344 248.905 344 207.225Z" fill="white"/>
</g>
<path d="M569.601 92.105V176H546.277V129.709L530.45 176H510.934L494.988 129.352V176H471.664V92.105H499.867L520.93 146.607L541.517 92.105H569.601ZM651.184 109.241V176H627.741V166.48C625.758 169.495 623.021 171.954 619.53 173.858C616.039 175.683 612.033 176.595 607.511 176.595C599.736 176.595 593.588 174.056 589.066 168.979C584.623 163.822 582.402 156.841 582.402 148.035V109.241H605.607V145.06C605.607 148.868 606.599 151.883 608.582 154.104C610.645 156.246 613.342 157.317 616.674 157.317C620.085 157.317 622.783 156.246 624.766 154.104C626.749 151.883 627.741 148.868 627.741 145.06V109.241H651.184ZM703.847 156.127V176H693.732C676.675 176 668.147 167.551 668.147 150.653V128.638H659.936V109.241H668.147V93.057H691.59V109.241H703.728V128.638H691.59V151.01C691.59 152.835 691.987 154.144 692.78 154.937C693.653 155.73 695.081 156.127 697.064 156.127H703.847ZM778.329 141.847C778.329 143.672 778.21 145.496 777.972 147.321H733.823C734.061 150.97 735.053 153.707 736.798 155.532C738.623 157.277 740.923 158.15 743.7 158.15C747.587 158.15 750.364 156.405 752.03 152.914H776.901C775.87 157.515 773.847 161.641 770.832 165.29C767.897 168.86 764.168 171.676 759.646 173.739C755.124 175.802 750.126 176.833 744.652 176.833C738.067 176.833 732.197 175.445 727.04 172.668C721.963 169.891 717.956 165.925 715.021 160.768C712.165 155.611 710.737 149.542 710.737 142.561C710.737 135.58 712.165 129.55 715.021 124.473C717.877 119.316 721.844 115.35 726.921 112.573C732.078 109.796 737.988 108.408 744.652 108.408C751.237 108.408 757.068 109.757 762.145 112.454C767.222 115.151 771.189 119.039 774.045 124.116C776.901 129.114 778.329 135.024 778.329 141.847ZM754.529 136.016C754.529 133.16 753.577 130.939 751.673 129.352C749.769 127.686 747.389 126.853 744.533 126.853C741.677 126.853 739.337 127.646 737.512 129.233C735.687 130.74 734.497 133.001 733.942 136.016H754.529ZM822.432 103.053C818.307 103.053 814.975 101.942 812.436 99.721C809.977 97.4203 808.747 94.5643 808.747 91.153C808.747 87.6623 809.977 84.7667 812.436 82.466C814.975 80.1653 818.307 79.015 822.432 79.015C826.478 79.015 829.731 80.1653 832.19 82.466C834.729 84.7667 835.998 87.6623 835.998 91.153C835.998 94.5643 834.729 97.4203 832.19 99.721C829.731 101.942 826.478 103.053 822.432 103.053ZM833.975 109.241V176H810.651V109.241H833.975ZM886.647 156.127V176H876.532C859.475 176 850.947 167.551 850.947 150.653V128.638H842.736V109.241H850.947V93.057H874.39V109.241H886.528V128.638H874.39V151.01C874.39 152.835 874.786 154.144 875.58 154.937C876.452 155.73 877.88 156.127 879.864 156.127H886.647ZM511.08 233.088C511.08 236.629 510.632 239.851 509.736 242.752C508.84 245.611 507.496 248.085 505.704 250.176C503.955 252.267 501.757 253.867 499.112 254.976C496.509 256.085 493.48 256.64 490.024 256.64C486.44 256.64 483.325 256.085 480.68 254.976C478.035 253.824 475.837 252.224 474.088 250.176C472.339 248.085 471.037 245.589 470.184 242.688C469.331 239.787 468.904 236.565 468.904 233.024C468.904 228.331 469.672 224.235 471.208 220.736C472.744 217.237 475.069 214.507 478.184 212.544C481.341 210.581 485.309 209.6 490.088 209.6C494.653 209.6 498.493 210.581 501.608 212.544C504.723 214.464 507.069 217.195 508.648 220.736C510.269 224.235 511.08 228.352 511.08 233.088ZM474.984 233.088C474.984 236.928 475.517 240.235 476.584 243.008C477.651 245.781 479.293 247.915 481.512 249.408C483.773 250.901 486.611 251.648 490.024 251.648C493.48 251.648 496.296 250.901 498.472 249.408C500.691 247.915 502.333 245.781 503.4 243.008C504.467 240.235 505 236.928 505 233.088C505 227.328 503.805 222.827 501.416 219.584C499.027 216.299 495.251 214.656 490.088 214.656C486.632 214.656 483.773 215.403 481.512 216.896C479.293 218.347 477.651 220.459 476.584 223.232C475.517 225.963 474.984 229.248 474.984 233.088ZM518.648 235.392C518.648 230.4 519.139 226.155 520.12 222.656C521.144 219.115 522.701 216.299 524.792 214.208C526.925 212.075 529.656 210.645 532.984 209.92C535.757 209.323 538.467 208.789 541.112 208.32C543.757 207.851 546.232 207.424 548.536 207.04L549.496 211.968C548.387 212.139 547.149 212.352 545.784 212.608C544.419 212.821 543.032 213.056 541.624 213.312C540.216 213.525 538.851 213.76 537.528 214.016C536.248 214.229 535.117 214.443 534.136 214.656C532.728 214.955 531.469 215.467 530.36 216.192C529.251 216.875 528.291 217.813 527.48 219.008C526.712 220.203 526.093 221.675 525.624 223.424C525.155 225.173 524.877 227.243 524.792 229.632H525.176C525.773 228.821 526.584 227.989 527.608 227.136C528.675 226.283 529.933 225.557 531.384 224.96C532.877 224.363 534.563 224.064 536.44 224.064C539.427 224.064 541.901 224.725 543.864 226.048C545.869 227.328 547.363 229.12 548.344 231.424C549.368 233.728 549.88 236.416 549.88 239.488C549.88 243.285 549.219 246.464 547.896 249.024C546.573 251.584 544.739 253.504 542.392 254.784C540.045 256.021 537.315 256.64 534.2 256.64C531.853 256.64 529.72 256.192 527.8 255.296C525.88 254.357 524.237 252.992 522.872 251.2C521.507 249.408 520.461 247.189 519.736 244.544C519.011 241.899 518.648 238.848 518.648 235.392ZM534.648 251.968C536.525 251.968 538.147 251.584 539.512 250.816C540.92 250.048 542.008 248.789 542.776 247.04C543.544 245.291 543.928 242.965 543.928 240.064C543.928 236.565 543.267 233.813 541.944 231.808C540.664 229.76 538.531 228.736 535.544 228.736C533.667 228.736 531.96 229.163 530.424 230.016C528.888 230.827 527.608 231.765 526.584 232.832C525.56 233.899 524.835 234.795 524.408 235.52C524.408 237.611 524.557 239.637 524.856 241.6C525.155 243.563 525.667 245.333 526.392 246.912C527.16 248.448 528.205 249.685 529.528 250.624C530.893 251.52 532.6 251.968 534.648 251.968ZM584.865 256H579.169V226.368H569.057C568.63 231.787 568.097 236.416 567.457 240.256C566.817 244.053 566.006 247.147 565.025 249.536C564.043 251.925 562.87 253.675 561.505 254.784C560.139 255.893 558.539 256.448 556.705 256.448C556.15 256.448 555.595 256.405 555.041 256.32C554.529 256.277 554.102 256.171 553.761 256V251.776C554.017 251.861 554.294 251.925 554.593 251.968C554.891 252.011 555.19 252.032 555.489 252.032C556.427 252.032 557.281 251.648 558.049 250.88C558.817 250.112 559.499 248.939 560.097 247.36C560.737 245.781 561.313 243.797 561.825 241.408C562.337 238.976 562.785 236.117 563.169 232.832C563.553 229.547 563.894 225.835 564.193 221.696H584.865V256ZM609.001 221.056C611.945 221.056 614.462 221.696 616.553 222.976C618.686 224.256 620.307 226.069 621.417 228.416C622.569 230.72 623.145 233.429 623.145 236.544V239.936H599.657C599.742 243.819 600.723 246.784 602.601 248.832C604.521 250.837 607.187 251.84 610.601 251.84C612.777 251.84 614.697 251.648 616.361 251.264C618.067 250.837 619.817 250.24 621.609 249.472V254.4C619.859 255.168 618.131 255.723 616.425 256.064C614.718 256.448 612.691 256.64 610.345 256.64C607.102 256.64 604.222 255.979 601.705 254.656C599.23 253.333 597.289 251.371 595.881 248.768C594.515 246.123 593.833 242.901 593.833 239.104C593.833 235.349 594.451 232.128 595.689 229.44C596.969 226.752 598.739 224.683 601.001 223.232C603.305 221.781 605.971 221.056 609.001 221.056ZM608.937 225.664C606.249 225.664 604.115 226.539 602.537 228.288C601.001 229.995 600.083 232.384 599.785 235.456H617.257C617.257 233.493 616.958 231.787 616.361 230.336C615.763 228.885 614.846 227.755 613.609 226.944C612.414 226.091 610.857 225.664 608.937 225.664ZM652.806 221.696V226.432H637.51V256H631.878V221.696H652.806ZM664.493 234.176C664.493 236.181 665.048 237.675 666.157 238.656C667.309 239.595 668.952 240.064 671.085 240.064C673.218 240.064 675.16 239.744 676.909 239.104C678.658 238.421 680.45 237.525 682.285 236.416V221.696H687.917V256H682.285V240.704C680.365 241.941 678.466 242.923 676.589 243.648C674.754 244.331 672.536 244.672 669.933 244.672C666.434 244.672 663.704 243.755 661.741 241.92C659.821 240.085 658.861 237.632 658.861 234.56V221.696H664.493V234.176ZM712.063 221.056C715.007 221.056 717.524 221.696 719.615 222.976C721.748 224.256 723.37 226.069 724.479 228.416C725.631 230.72 726.207 233.429 726.207 236.544V239.936H702.719C702.804 243.819 703.786 246.784 705.663 248.832C707.583 250.837 710.25 251.84 713.663 251.84C715.839 251.84 717.759 251.648 719.423 251.264C721.13 250.837 722.879 250.24 724.671 249.472V254.4C722.922 255.168 721.194 255.723 719.487 256.064C717.78 256.448 715.754 256.64 713.407 256.64C710.164 256.64 707.284 255.979 704.767 254.656C702.292 253.333 700.351 251.371 698.943 248.768C697.578 246.123 696.895 242.901 696.895 239.104C696.895 235.349 697.514 232.128 698.751 229.44C700.031 226.752 701.802 224.683 704.063 223.232C706.367 221.781 709.034 221.056 712.063 221.056ZM711.999 225.664C709.311 225.664 707.178 226.539 705.599 228.288C704.063 229.995 703.146 232.384 702.847 235.456H720.319C720.319 233.493 720.02 231.787 719.423 230.336C718.826 228.885 717.908 227.755 716.671 226.944C715.476 226.091 713.919 225.664 711.999 225.664ZM740.572 221.696V235.968H759.196V221.696H764.828V256H759.196V240.704H740.572V256H734.94V221.696H740.572ZM781.002 242.624C781.002 243.008 780.981 243.563 780.938 244.288C780.938 244.971 780.917 245.717 780.874 246.528C780.831 247.296 780.789 248.043 780.746 248.768C780.703 249.451 780.661 250.005 780.618 250.432L798.986 221.696H805.898V256H800.65V235.776C800.65 235.093 800.65 234.197 800.65 233.088C800.693 231.979 800.735 230.891 800.778 229.824C800.821 228.715 800.863 227.883 800.906 227.328L782.666 256H775.69V221.696H781.002V242.624ZM830.063 221.056C833.007 221.056 835.524 221.696 837.615 222.976C839.748 224.256 841.37 226.069 842.479 228.416C843.631 230.72 844.207 233.429 844.207 236.544V239.936H820.719C820.804 243.819 821.786 246.784 823.663 248.832C825.583 250.837 828.25 251.84 831.663 251.84C833.839 251.84 835.759 251.648 837.423 251.264C839.13 250.837 840.879 250.24 842.671 249.472V254.4C840.922 255.168 839.194 255.723 837.487 256.064C835.78 256.448 833.754 256.64 831.407 256.64C828.164 256.64 825.284 255.979 822.767 254.656C820.292 253.333 818.351 251.371 816.943 248.768C815.578 246.123 814.895 242.901 814.895 239.104C814.895 235.349 815.514 232.128 816.751 229.44C818.031 226.752 819.802 224.683 822.063 223.232C824.367 221.781 827.034 221.056 830.063 221.056ZM829.999 225.664C827.311 225.664 825.178 226.539 823.599 228.288C822.063 229.995 821.146 232.384 820.847 235.456H838.319C838.319 233.493 838.02 231.787 837.423 230.336C836.826 228.885 835.908 227.755 834.671 226.944C833.476 226.091 831.919 225.664 829.999 225.664ZM499.432 301.696V336H493.8V306.496H476.072V336H470.44V301.696H499.432ZM526.698 301.056C530.922 301.056 534.314 302.528 536.874 305.472C539.476 308.416 540.778 312.853 540.778 318.784C540.778 322.667 540.18 325.952 538.986 328.64C537.833 331.285 536.191 333.291 534.058 334.656C531.967 335.979 529.492 336.64 526.634 336.64C524.884 336.64 523.327 336.405 521.962 335.936C520.596 335.467 519.423 334.869 518.442 334.144C517.503 333.376 516.692 332.544 516.01 331.648H515.626C515.711 332.373 515.796 333.291 515.882 334.4C515.967 335.509 516.01 336.469 516.01 337.28V351.36H510.378V301.696H514.986L515.754 306.368H516.01C516.692 305.387 517.503 304.491 518.442 303.68C519.423 302.869 520.575 302.229 521.898 301.76C523.263 301.291 524.863 301.056 526.698 301.056ZM525.674 305.792C523.37 305.792 521.514 306.24 520.106 307.136C518.698 307.989 517.674 309.291 517.034 311.04C516.394 312.789 516.052 315.008 516.01 317.696V318.784C516.01 321.6 516.308 323.989 516.906 325.952C517.503 327.915 518.506 329.408 519.914 330.432C521.364 331.456 523.327 331.968 525.802 331.968C527.892 331.968 529.599 331.392 530.922 330.24C532.287 329.088 533.29 327.531 533.93 325.568C534.612 323.563 534.954 321.28 534.954 318.72C534.954 314.795 534.186 311.659 532.65 309.312C531.156 306.965 528.831 305.792 525.674 305.792ZM555.065 322.624C555.065 323.008 555.043 323.563 555.001 324.288C555.001 324.971 554.979 325.717 554.937 326.528C554.894 327.296 554.851 328.043 554.809 328.768C554.766 329.451 554.723 330.005 554.681 330.432L573.049 301.696H579.961V336H574.713V315.776C574.713 315.093 574.713 314.197 574.713 313.088C574.755 311.979 574.798 310.891 574.841 309.824C574.883 308.715 574.926 307.883 574.969 307.328L556.729 336H549.753V301.696H555.065V322.624ZM636.932 301.696V336H631.3V306.496H613.572V336H607.94V301.696H636.932ZM660.87 301.12C665.051 301.12 668.144 302.037 670.15 303.872C672.155 305.707 673.158 308.629 673.158 312.64V336H669.062L667.974 331.136H667.718C666.736 332.373 665.712 333.419 664.646 334.272C663.622 335.083 662.427 335.68 661.062 336.064C659.739 336.448 658.118 336.64 656.198 336.64C654.15 336.64 652.294 336.277 650.63 335.552C649.008 334.827 647.728 333.717 646.79 332.224C645.851 330.688 645.382 328.768 645.382 326.464C645.382 323.051 646.726 320.427 649.414 318.592C652.102 316.715 656.24 315.691 661.83 315.52L667.654 315.328V313.28C667.654 310.421 667.035 308.437 665.798 307.328C664.56 306.219 662.811 305.664 660.55 305.664C658.758 305.664 657.051 305.941 655.43 306.496C653.808 307.008 652.294 307.605 650.885 308.288L649.158 304.064C650.651 303.253 652.422 302.571 654.47 302.016C656.518 301.419 658.651 301.12 660.87 301.12ZM662.534 319.424C658.267 319.595 655.302 320.277 653.638 321.472C652.016 322.667 651.206 324.352 651.206 326.528C651.206 328.448 651.782 329.856 652.934 330.752C654.128 331.648 655.643 332.096 657.478 332.096C660.379 332.096 662.79 331.307 664.71 329.728C666.63 328.107 667.59 325.632 667.59 322.304V319.232L662.534 319.424ZM700.073 301.056C704.297 301.056 707.689 302.528 710.249 305.472C712.851 308.416 714.153 312.853 714.153 318.784C714.153 322.667 713.555 325.952 712.361 328.64C711.208 331.285 709.566 333.291 707.433 334.656C705.342 335.979 702.867 336.64 700.009 336.64C698.259 336.64 696.702 336.405 695.337 335.936C693.971 335.467 692.798 334.869 691.817 334.144C690.878 333.376 690.067 332.544 689.385 331.648H689.001C689.086 332.373 689.171 333.291 689.257 334.4C689.342 335.509 689.385 336.469 689.385 337.28V351.36H683.753V301.696H688.361L689.129 306.368H689.385C690.067 305.387 690.878 304.491 691.817 303.68C692.798 302.869 693.95 302.229 695.273 301.76C696.638 301.291 698.238 301.056 700.073 301.056ZM699.049 305.792C696.745 305.792 694.889 306.24 693.481 307.136C692.073 307.989 691.049 309.291 690.409 311.04C689.769 312.789 689.427 315.008 689.385 317.696V318.784C689.385 321.6 689.683 323.989 690.281 325.952C690.878 327.915 691.881 329.408 693.289 330.432C694.739 331.456 696.702 331.968 699.177 331.968C701.267 331.968 702.974 331.392 704.297 330.24C705.662 329.088 706.665 327.531 707.305 325.568C707.987 323.563 708.329 321.28 708.329 318.72C708.329 314.795 707.561 311.659 706.025 309.312C704.531 306.965 702.206 305.792 699.049 305.792ZM717.127 301.696H723.143L730.567 321.216C730.993 322.368 731.377 323.477 731.719 324.544C732.103 325.611 732.444 326.656 732.743 327.68C733.041 328.661 733.276 329.621 733.447 330.56H733.703C733.959 329.493 734.364 328.107 734.919 326.4C735.473 324.651 736.049 322.901 736.647 321.152L743.623 301.696H749.703L734.919 340.736C734.108 342.869 733.148 344.725 732.039 346.304C730.972 347.925 729.649 349.163 728.071 350.016C726.535 350.912 724.657 351.36 722.439 351.36C721.415 351.36 720.519 351.296 719.751 351.168C718.983 351.083 718.321 350.976 717.767 350.848V346.368C718.236 346.453 718.791 346.539 719.431 346.624C720.113 346.709 720.817 346.752 721.543 346.752C722.865 346.752 723.996 346.496 724.935 345.984C725.916 345.515 726.748 344.811 727.431 343.872C728.113 342.976 728.689 341.909 729.159 340.672L730.951 336.128L717.127 301.696ZM771.448 301.056C775.672 301.056 779.064 302.528 781.624 305.472C784.226 308.416 785.528 312.853 785.528 318.784C785.528 322.667 784.93 325.952 783.736 328.64C782.583 331.285 780.941 333.291 778.808 334.656C776.717 335.979 774.242 336.64 771.384 336.64C769.634 336.64 768.077 336.405 766.712 335.936C765.346 335.467 764.173 334.869 763.192 334.144C762.253 333.376 761.442 332.544 760.76 331.648H760.376C760.461 332.373 760.546 333.291 760.632 334.4C760.717 335.509 760.76 336.469 760.76 337.28V351.36H755.128V301.696H759.736L760.504 306.368H760.76C761.442 305.387 762.253 304.491 763.192 303.68C764.173 302.869 765.325 302.229 766.648 301.76C768.013 301.291 769.613 301.056 771.448 301.056ZM770.424 305.792C768.12 305.792 766.264 306.24 764.856 307.136C763.448 307.989 762.424 309.291 761.784 311.04C761.144 312.789 760.802 315.008 760.76 317.696V318.784C760.76 321.6 761.058 323.989 761.656 325.952C762.253 327.915 763.256 329.408 764.664 330.432C766.114 331.456 768.077 331.968 770.552 331.968C772.642 331.968 774.349 331.392 775.672 330.24C777.037 329.088 778.04 327.531 778.68 325.568C779.362 323.563 779.704 321.28 779.704 318.72C779.704 314.795 778.936 311.659 777.4 309.312C775.906 306.965 773.581 305.792 770.424 305.792ZM807.751 301.056C810.695 301.056 813.212 301.696 815.303 302.976C817.436 304.256 819.057 306.069 820.167 308.416C821.319 310.72 821.895 313.429 821.895 316.544V319.936H798.407C798.492 323.819 799.473 326.784 801.351 328.832C803.271 330.837 805.937 331.84 809.351 331.84C811.527 331.84 813.447 331.648 815.111 331.264C816.817 330.837 818.567 330.24 820.359 329.472V334.4C818.609 335.168 816.881 335.723 815.175 336.064C813.468 336.448 811.441 336.64 809.095 336.64C805.852 336.64 802.972 335.979 800.455 334.656C797.98 333.333 796.039 331.371 794.631 328.768C793.265 326.123 792.583 322.901 792.583 319.104C792.583 315.349 793.201 312.128 794.439 309.44C795.719 306.752 797.489 304.683 799.751 303.232C802.055 301.781 804.721 301.056 807.751 301.056ZM807.687 305.664C804.999 305.664 802.865 306.539 801.287 308.288C799.751 309.995 798.833 312.384 798.535 315.456H816.007C816.007 313.493 815.708 311.787 815.111 310.336C814.513 308.885 813.596 307.755 812.359 306.944C811.164 306.091 809.607 305.664 807.687 305.664ZM839.652 301.056C842.254 301.056 844.516 301.419 846.436 302.144C848.356 302.827 849.849 303.851 850.916 305.216C851.982 306.539 852.516 308.16 852.516 310.08C852.516 312.171 851.94 313.835 850.788 315.072C849.636 316.267 848.057 317.141 846.052 317.696V317.952C847.417 318.336 848.676 318.869 849.828 319.552C850.98 320.235 851.897 321.131 852.58 322.24C853.305 323.349 853.668 324.779 853.668 326.528C853.668 328.405 853.134 330.112 852.068 331.648C851.044 333.184 849.444 334.4 847.268 335.296C845.134 336.192 842.382 336.64 839.012 336.64C837.39 336.64 835.833 336.555 834.34 336.384C832.889 336.213 831.566 335.957 830.372 335.616C829.22 335.275 828.196 334.869 827.299 334.4V329.344C828.75 330.027 830.457 330.645 832.42 331.2C834.425 331.755 836.601 332.032 838.948 332.032C840.654 332.032 842.19 331.84 843.556 331.456C844.964 331.072 846.073 330.475 846.884 329.664C847.694 328.811 848.1 327.659 848.1 326.208C848.1 324.885 847.737 323.819 847.012 323.008C846.286 322.155 845.198 321.515 843.748 321.088C842.34 320.661 840.526 320.448 838.308 320.448H833.7V315.84H837.412C840.356 315.84 842.702 315.456 844.452 314.688C846.244 313.877 847.14 312.512 847.14 310.592C847.14 308.971 846.457 307.755 845.092 306.944C843.769 306.133 841.849 305.728 839.332 305.728C837.454 305.728 835.79 305.92 834.34 306.304C832.932 306.645 831.374 307.179 829.668 307.904L827.684 303.424C829.518 302.613 831.438 302.016 833.444 301.632C835.449 301.248 837.518 301.056 839.652 301.056ZM875.251 301.056C878.195 301.056 880.712 301.696 882.803 302.976C884.936 304.256 886.557 306.069 887.667 308.416C888.819 310.72 889.395 313.429 889.395 316.544V319.936H865.907C865.992 323.819 866.973 326.784 868.851 328.832C870.771 330.837 873.437 331.84 876.851 331.84C879.027 331.84 880.947 331.648 882.611 331.264C884.317 330.837 886.067 330.24 887.859 329.472V334.4C886.109 335.168 884.381 335.723 882.675 336.064C880.968 336.448 878.941 336.64 876.595 336.64C873.352 336.64 870.472 335.979 867.955 334.656C865.48 333.333 863.539 331.371 862.131 328.768C860.765 326.123 860.083 322.901 860.083 319.104C860.083 315.349 860.701 312.128 861.939 309.44C863.219 306.752 864.989 304.683 867.251 303.232C869.555 301.781 872.221 301.056 875.251 301.056ZM875.187 305.664C872.499 305.664 870.365 306.539 868.787 308.288C867.251 309.995 866.333 312.384 866.035 315.456H883.507C883.507 313.493 883.208 311.787 882.611 310.336C882.013 308.885 881.096 307.755 879.859 306.944C878.664 306.091 877.107 305.664 875.187 305.664Z" fill="white"/>
<defs>
<clipPath id="clip0_201_303">
<rect width="266.999" height="225.453" fill="white" transform="translate(77.001 94)"/>
</clipPath>
</defs>
</svg>
